<svg xmlns="http://www.w3.org/2000/svg" xmlns:xlink="http://www.w3.org/1999/xlink" width="1070" height="412.49"><rect width="1070" height="412.49" rx="0" ry="0" class="a"/><svg height="412.49" viewBox="0 0 107 41.249" width="1070" xmlns="http://www.w3.org/2000/svg" xmlns:xlink="http://www.w3.org/1999/xlink"><style>@keyframes j{0%{transform:translateX(0)}5%{transform:translateX(-107px)}49.5%{transform:translateX(-214px)}50.5%{transform:translateX(-321px)}52.1%{transform:translateX(-428px)}53.4%{transform:translateX(-535px)}54.1%{transform:translateX(-642px)}55.2%{transform:translateX(-749px)}56.2%{transform:translateX(-856px)}57%{transform:translateX(-963px)}57.7%{transform:translateX(-1070px)}65.4%{transform:translateX(-1177px)}67%{transform:translateX(-1284px)}68.6%{transform:translateX(-1391px)}69.3%{transform:translateX(-1498px)}71.1%{transform:translateX(-1605px)}71.2%{transform:translateX(-1712px)}to{transform:translateX(-1819px)}}.a{fill:#282d35}.c,.d,.f,.g{white-space:pre}.c{fill:#a8cc8c;font-weight:700}.d,.f,.g{fill:#b9c0cb}.f,.g{fill:#dbab79}.g{fill:#a8cc8c}</style><g font-family="Monaco,Consolas,Menlo,'Bitstream Vera Sans Mono','Powerline Symbols',monospace" font-size="1.67"><defs><symbol id="1"><text y="1.67" class="c">alexander@DESKTOP-J9JBQP9</text><text x="25.05" y="1.67" class="d">:</text><text x="26.052" y="1.67" style="white-space:pre" fill="#71bef2" font-weight="700">~/source/repos/frontend/js/js-scratch/why-swc</text><text x="72.144" y="1.67" class="c">(master)</text></symbol><symbol id="2"><text y="1.67" class="d">$</text></symbol><symbol id="3"><text y="1.67" class="d">$</text><text x="2.004" y="1.67" class="d">npm</text></symbol><symbol id="4"><text y="1.67" class="d">$</text><text x="2.004" y="1.67" class="d">npm</text><text x="6.012" y="1.67" class="d">start</text></symbol><symbol id="5"><text y="1.67" class="d">&gt;</text><text x="2.004" y="1.67" class="d">why-swc@1.0.0</text><text x="16.032" y="1.67" class="d">start</text></symbol><symbol id="6"><text y="1.67" class="d">&gt;</text><text x="2.004" y="1.67" class="d">npm</text><text x="6.012" y="1.67" class="d">run</text><text x="10.02" y="1.67" class="d">build</text><text x="16.032" y="1.67" class="d">&amp;&amp;</text><text x="19.038" y="1.67" class="d">node</text><text x="24.048" y="1.67" class="d">build/index.js</text></symbol><symbol id="7"><text y="1.67" class="d">&gt;</text><text x="2.004" y="1.67" class="d">why-swc@1.0.0</text><text x="16.032" y="1.67" class="d">build</text></symbol><symbol id="8"><text y="1.67" class="d">&gt;</text><text x="2.004" y="1.67" class="d">swc</text><text x="6.012" y="1.67" class="d">src</text><text x="10.02" y="1.67" class="d">-d</text><text x="13.026" y="1.67" class="d">build</text></symbol><symbol id="9"><text y="1.67" class="d">Successfully</text><text x="13.026" y="1.67" class="d">compiled:</text><text x="23.046" y="1.67" class="d">2</text><text x="25.05" y="1.67" class="d">files</text><text x="31.062" y="1.67" class="d">with</text><text x="36.072" y="1.67" class="d">swc</text><text x="40.08" y="1.67" class="d">(17.71ms)</text></symbol><symbol id="10"><text y="1.67" class="d">data</text><text x="5.01" y="1.67" class="d">{</text><text x="7.014" y="1.67" class="d">userId:</text><text x="15.03" y="1.67" class="f">1</text><text x="16.032" y="1.67" class="d">,</text><text x="18.036" y="1.67" class="d">id:</text><text x="22.044" y="1.67" class="f">1</text><text x="23.046" y="1.67" class="d">,</text><text x="25.05" y="1.67" class="d">title:</text><text x="32.064" y="1.67" class="g">&apos;delectus</text><text x="42.084" y="1.67" class="g">aut</text><text x="46.092" y="1.67" class="g">autem&apos;</text><text x="52.104" y="1.67" class="d">,</text><text x="54.108" y="1.67" class="d">completed:</text><text x="65.13" y="1.67" class="f">false</text><text x="71.142" y="1.67" class="d">}</text></symbol><symbol id="a"><path fill="transparent" d="M0 0h107v19H0z"/></symbol><symbol id="b"><path fill="#6f7683" d="M0 0h1.102v2.171H0z"/></symbol></defs><path class="a" d="M0 0h107v41.249H0z"/><g style="animation-duration:16.16474s;animation-iteration-count:infinite;animation-name:j;animation-timing-function:steps(1,end)"><svg width="1926"><svg><use xlink:href="#a"/><use xlink:href="#b" x="-.004"/></svg><svg x="107"><use xlink:href="#a"/><use xlink:href="#b" x="1.996" y="2.146"/><use xlink:href="#1"/><use xlink:href="#2" y="2.171"/></svg><svg x="214"><use xlink:href="#a"/><use xlink:href="#b" x="2.996" y="2.146"/><use xlink:href="#1"/><text y="3.841" class="d">$</text><text x="2.004" y="3.841" class="d">n</text></svg><svg x="321"><use xlink:href="#a"/><use xlink:href="#b" x="3.996" y="2.146"/><use xlink:href="#1"/><text y="3.841" class="d">$</text><text x="2.004" y="3.841" class="d">np</text></svg><svg x="428"><use xlink:href="#a"/><use xlink:href="#b" x="4.996" y="2.146"/><use xlink:href="#1"/><use xlink:href="#3" y="2.171"/></svg><svg x="535"><use xlink:href="#a"/><use xlink:href="#b" x="5.996" y="2.146"/><use xlink:href="#1"/><use xlink:href="#3" y="2.171"/></svg><svg x="642"><use xlink:href="#a"/><use xlink:href="#b" x="6.996" y="2.146"/><use xlink:href="#1"/><text y="3.841" class="d">$</text><text x="2.004" y="3.841" class="d">npm</text><text x="6.012" y="3.841" class="d">s</text></svg><svg x="749"><use xlink:href="#a"/><use xlink:href="#b" x="7.996" y="2.146"/><use xlink:href="#1"/><text y="3.841" class="d">$</text><text x="2.004" y="3.841" class="d">npm</text><text x="6.012" y="3.841" class="d">st</text></svg><svg x="856"><use xlink:href="#a"/><use xlink:href="#b" x="8.996" y="2.146"/><use xlink:href="#1"/><text y="3.841" class="d">$</text><text x="2.004" y="3.841" class="d">npm</text><text x="6.012" y="3.841" class="d">sta</text></svg><svg x="963"><use xlink:href="#a"/><use xlink:href="#b" x="9.996" y="2.146"/><use xlink:href="#1"/><text y="3.841" class="d">$</text><text x="2.004" y="3.841" class="d">npm</text><text x="6.012" y="3.841" class="d">star</text></svg><svg x="1070"><use xlink:href="#a"/><use xlink:href="#b" x="10.996" y="2.146"/><use xlink:href="#1"/><use xlink:href="#4" y="2.171"/></svg><svg x="1177"><use xlink:href="#a"/><use xlink:href="#b" x="-.004" y="4.317"/><use xlink:href="#1"/><use xlink:href="#4" y="2.171"/></svg><svg x="1284"><use xlink:href="#a"/><use xlink:href="#b" x="-.004" y="13.001"/><use xlink:href="#1"/><use xlink:href="#4" y="2.171"/><use xlink:href="#5" y="6.513"/><use xlink:href="#6" y="8.684"/></svg><svg x="1391"><use xlink:href="#a"/><use xlink:href="#b" x="-.004" y="21.685"/><use xlink:href="#1"/><use xlink:href="#4" y="2.171"/><use xlink:href="#5" y="6.513"/><use xlink:href="#6" y="8.684"/><use xlink:href="#7" y="15.197"/><use xlink:href="#8" y="17.368"/></svg><svg x="1498"><use xlink:href="#a"/><use xlink:href="#b" x="-.004" y="23.856"/><use xlink:href="#1"/><use xlink:href="#4" y="2.171"/><use xlink:href="#5" y="6.513"/><use xlink:href="#6" y="8.684"/><use xlink:href="#7" y="15.197"/><use xlink:href="#8" y="17.368"/><use xlink:href="#9" y="21.71"/></svg><svg x="1605"><use xlink:href="#a"/><use xlink:href="#b" x="-.004" y="26.027"/><use xlink:href="#1"/><use xlink:href="#4" y="2.171"/><use xlink:href="#5" y="6.513"/><use xlink:href="#6" y="8.684"/><use xlink:href="#7" y="15.197"/><use xlink:href="#8" y="17.368"/><use xlink:href="#9" y="21.71"/><use xlink:href="#10" y="23.881"/></svg><svg x="1712"><use xlink:href="#a"/><use xlink:href="#b" x="1.996" y="28.198"/><use xlink:href="#1"/><use xlink:href="#4" y="2.171"/><use xlink:href="#5" y="6.513"/><use xlink:href="#6" y="8.684"/><use xlink:href="#7" y="15.197"/><use xlink:href="#8" y="17.368"/><use xlink:href="#9" y="21.71"/><use xlink:href="#10" y="23.881"/><use xlink:href="#1" y="26.052"/><use xlink:href="#2" y="28.223"/></svg><svg x="1819"><use xlink:href="#a"/><use xlink:href="#b" x="-.004" y="30.369"/><use xlink:href="#1"/><use xlink:href="#4" y="2.171"/><use xlink:href="#5" y="6.513"/><use xlink:href="#6" y="8.684"/><use xlink:href="#7" y="15.197"/><use xlink:href="#8" y="17.368"/><use xlink:href="#9" y="21.71"/><use xlink:href="#10" y="23.881"/><use xlink:href="#1" y="26.052"/><text y="29.893" class="d">$</text><text x="2.004" y="29.893" class="d">exit</text></svg></svg></g></g></svg></svg>